<svg xmlns="http://www.w3.org/2000/svg" xmlns:svg="http://www.w3.org/2000/svg" xmlns:xlink="http://www.w3.org/1999/xlink" version="1.0" height="800.0003798466427pt" width="1180.0000000056302pt" viewBox="364.9999999999999 67.00000000000011 1188.0000000056302 806.0003798466427" ><defs><style type="text/css">
            @font-face {
                font-family: 'noto_regular';
                src: url('https://app.creately.com/d/assets/fonts/noto/noto-regular.woff') format('woff'),
                     url('https://app.creately.com/d/assets/fonts/noto/noto-regular.woff2') format('woff2');
                font-weight: normal;
                font-style: normal;
            }
        p {
            margin: 0;
        }
        </style></defs><defs>
        <style>
            span{ display: inline-block; }
            
        </style>
        
        </defs><g id="N2Dzc86P6t3"><g transform="translate(369.9999999999999 70.00000000000011)"><rect x="0" y="400.00018992332133" width="132.5002571933779" height="200.00009496166066" fill="rgb(244,244,245)" stroke="#737377" stroke-width="2" stroke-dasharray="0 0"/><rect x="1" y="401.00018992332133" width="130.5002571933779" height="198.00009496166066" fill="rgb(244,244,245)"  stroke-width="2" stroke-dasharray="0 0"/><rect x="0" y="0" width="132.5002571933779" height="200.00009496166066" fill="none" stroke="#737377" stroke-width="2" stroke-dasharray="0 0"/><rect x="1" y="1" width="130.5002571933779" height="198.00009496166066" fill="rgb(244,244,245)"  stroke-width="2" stroke-dasharray="0 0"/><rect x="0" y="200.00009496166066" width="132.5002571933779" height="200.00009496166066" fill="none" stroke="#737377" stroke-width="2" stroke-dasharray="0 0"/><rect x="1" y="201.00009496166066" width="130.5002571933779" height="198.00009496166066" fill="rgb(244,244,245)"  stroke-width="2" stroke-dasharray="0 0"/><rect x="132.5002571933779" y="0" width="1047.4997428122524" height="200.00009496166066" fill="none" stroke="#737377" stroke-width="2" stroke-dasharray="0 0"/><rect x="133.5002571933779" y="1" width="1045.4997428122524" height="198.00009496166066" fill="rgb(244,244,245)"  stroke-width="2" stroke-dasharray="0 0"/><rect x="132.5002571933779" y="400.00018992332133" width="1047.4997428122524" height="200.00009496166066" fill="none" stroke="#737377" stroke-width="2" stroke-dasharray="0 0"/><rect x="133.5002571933779" y="401.00018992332133" width="1045.4997428122524" height="198.00009496166066" fill="rgb(244,244,245)"  stroke-width="2" stroke-dasharray="0 0"/><rect x="132.5002571933779" y="200.00009496166066" width="1047.4997428122524" height="200.00009496166066" fill="none" stroke="#737377" stroke-width="2" stroke-dasharray="0 0"/><rect x="133.5002571933779" y="201.00009496166066" width="1045.4997428122524" height="198.00009496166066" fill="rgb(244,244,245)"  stroke-width="2" stroke-dasharray="0 0"/><rect x="0" y="600.000284884982" width="132.5002571933779" height="200.00009496166066" fill="none" stroke="#737377" stroke-width="2" stroke-dasharray="0 0"/><rect x="1" y="601.000284884982" width="130.5002571933779" height="198.00009496166066" fill="rgb(244,244,245)"  stroke-width="2" stroke-dasharray="0 0"/><rect x="132.5002571933779" y="600.000284884982" width="1047.4997428122524" height="200.00009496166066" fill="none" stroke="#737377" stroke-width="2" stroke-dasharray="0 0"/><rect x="133.5002571933779" y="601.000284884982" width="1045.4997428122524" height="198.00009496166066" fill="rgb(244,244,245)"  stroke-width="2" stroke-dasharray="0 0"/><rect x="0" y="0" width="132.5002571933779" height="200.00009496166066" fill="none" stroke="#737377" stroke-width="2" stroke-dasharray="0 0"/><rect x="0" y="200.00009496166066" width="132.5002571933779" height="200.00009496166066" fill="none" stroke="#737377" stroke-width="2" stroke-dasharray="0 0"/><rect x="0" y="400.00018992332133" width="132.5002571933779" height="200.00009496166066" fill="none" stroke="#737377" stroke-width="2" stroke-dasharray="0 0"/><rect x="0" y="600.000284884982" width="132.5002571933779" height="200.00009496166066" fill="none" stroke="#737377" stroke-width="2" stroke-dasharray="0 0"/></g><g transform="translate(383.98512859668887, 159.25004748083046) rotate(0, 52.265, 10.75)" width="104.53" height="21.5"><text text-decoration="none" x="0.0032812500000005684" fill="#282829" font-size="12pt" font-family="noto_regular"  y="17">Department&#160;</text><text text-decoration="none" x="95.71421875" fill="#282829" font-size="12pt" font-family="noto_regular"  y="17">1</text><text text-decoration="none" x="104.52671875" fill="#4b4b4b" font-size="10pt" font-family="noto_regular"  y="17"></text></g><g transform="translate(512.5002571933778, 80.00000000000011) rotate(0, 0, 0)" width="0.01" height="19.4"><text text-decoration="none" x="0.005" fill="#4b4b4b" font-size="10pt" font-family="noto_regular"  y="15.5"></text></g><g transform="translate(383.98512859668887, 359.2501424424911) rotate(0, 52.265, 10.75)" width="104.53" height="21.5"><text text-decoration="none" x="0.0032812500000005684" fill="#282829" font-size="12pt" font-family="noto_regular"  y="17">Department&#160;</text><text text-decoration="none" x="95.71421875" fill="#282829" font-size="12pt" font-family="noto_regular"  y="17">2</text><text text-decoration="none" x="104.52671875" fill="#4b4b4b" font-size="10pt" font-family="noto_regular"  y="17"></text></g><g transform="translate(512.5002571933778, 280.0000949616608) rotate(0, 0, 0)" width="0.01" height="19.4"><text text-decoration="none" x="0.005" fill="#4b4b4b" font-size="10pt" font-family="noto_regular"  y="15.5"></text></g><g transform="translate(383.9851285966889, 559.2502374041518) rotate(0, 52.265, 10.75)" width="104.53" height="21.5"><text text-decoration="none" x="0.0032812500000005684" fill="#282829" font-size="12pt" font-family="noto_regular"  y="17">Department&#160;</text><text text-decoration="none" x="95.71421875" fill="#282829" font-size="12pt" font-family="noto_regular"  y="17">3</text><text text-decoration="none" x="104.52671875" fill="#4b4b4b" font-size="10pt" font-family="noto_regular"  y="17"></text></g><g transform="translate(512.5002571933778, 480.00018992332144) rotate(0, 0, 0)" width="0.01" height="19.4"><text text-decoration="none" x="0.005" fill="#4b4b4b" font-size="10pt" font-family="noto_regular"  y="15.5"></text></g><g transform="translate(383.9851285966889, 759.2503323658125) rotate(0, 52.265, 10.75)" width="104.53" height="21.5"><text text-decoration="none" x="0.0032812500000005684" fill="#282829" font-size="12pt" font-family="noto_regular"  y="17">Department&#160;</text><text text-decoration="none" x="95.71421875" fill="#282829" font-size="12pt" font-family="noto_regular"  y="17">4</text><text text-decoration="none" x="104.52671875" fill="#4b4b4b" font-size="10pt" font-family="noto_regular"  y="17"></text></g><g transform="translate(1026.245128599504, 760.3003323658124) rotate(0, 0.005, 9.7)" width="0.01" height="19.4"><text text-decoration="none" x="0.005" fill="#4b4b4b" font-size="10pt" font-family="noto_regular"  y="15.5"></text></g></g><g id="SffdWZlAW6r"><g transform="translate(520.0000000000003 140)"><path d="M 20,40 L 20,40 L 20,40 A 20 20 0 0 1 0 20.000000000000004 L 0,20 L 0,20.000000000000004 A 20 20 0 0 1 20 0 L 80,0 L 80,0 L 80,0 A 20 20 0 0 1 100 20 L 100,20 L 100,20 A 20 20 0 0 1 80 40 L 20,40 Z" fill="rgb(127,127,206)"   stroke-dasharray="0 0"/></g><g transform="translate(555.0350000000003, 150.25) rotate(0, 14.965, 9.75)" width="29.93" height="19.5"><text text-decoration="none" x="0.004062499999999858" fill="#ffffff" font-size="10pt" font-family="noto_regular"  y="15.5">Start</text><text text-decoration="none" x="29.9259375" fill="#4b4b4b" font-size="10pt" font-family="noto_regular"  y="15.5"></text></g></g><g id="LNcYXl4crFL"><g><path d="M 620,160 L 670,160 Q 680,160.00000000000003 680.0000000000003,160.00000000000003 L 720,160" fill="none" stroke="#1a1a1a" stroke-width="2" stroke-linecap="round" stroke-linejoin="round" stroke-dasharray="0 0"/><path d="M 720,160 L 711.304347826087,154.25 L 711.304347826087,165.75 Z" fill="rgb(26,26,26)" stroke="#1a1a1a" stroke-width="2" stroke-linecap="round" stroke-linejoin="round"/></g></g><g id="qXtcDKjXTM1"><g transform="translate(720.0000000000003 130.00000000000003)"><rect x="0" y="0" width="120" height="60" fill="rgb(107,165,183)"   stroke-dasharray="0 0"/></g><g transform="translate(732.8300000000004, 141.24500000000003) rotate(0, 47.17, 18.755)" width="94.34" height="37.51"><text text-decoration="none" x="13.798906250000002" fill="#ffffff" font-size="10pt" font-family="noto_regular"  y="14">Determine&#160;</text><text text-decoration="none" x="0.0020312500000017053" fill="#ffffff" font-size="10pt" font-family="noto_regular"  y="33.5">customer&#160;</text><text text-decoration="none" x="62.86140625" fill="#ffffff" font-size="10pt" font-family="noto_regular"  y="33.5">need</text><text text-decoration="none" x="94.33796875" fill="#4b4b4b" font-size="10pt" font-family="noto_regular"  y="33.5"></text></g></g><g id="YMyYxqh0nvO"><g><path d="M 840,160 L 940,160" fill="none" stroke="#1a1a1a" stroke-width="2" stroke-linecap="round" stroke-linejoin="round" stroke-dasharray="0 0"/><path d="M 940,160 L 931.304347826087,154.25 L 931.304347826087,165.75 Z" fill="rgb(26,26,26)" stroke="#1a1a1a" stroke-width="2" stroke-linecap="round" stroke-linejoin="round"/></g></g><g id="cJLVLQGkVlW"><g transform="translate(940.0000000000003 130.00000000000003)"><rect x="0" y="0" width="120" height="60" fill="rgb(107,165,183)"   stroke-dasharray="0 0"/></g><g transform="translate(964.7150000000005, 141.24500000000003) rotate(0, 35.285, 18.755)" width="70.57" height="37.51"><text text-decoration="none" x="0.0037499999999965894" fill="#ffffff" font-size="10pt" font-family="noto_regular"  y="14">Brainstorm&#160;</text><text text-decoration="none" x="6.749843749999997" fill="#ffffff" font-size="10pt" font-family="noto_regular"  y="33.5">solutions</text><text text-decoration="none" x="63.82015625" fill="#4b4b4b" font-size="10pt" font-family="noto_regular"  y="33.5"></text></g></g><g id="CJbAmNdQDnB"><g><path d="M 1060,160 L 1160,160" fill="none" stroke="#1a1a1a" stroke-width="2" stroke-linecap="round" stroke-linejoin="round" stroke-dasharray="0 0"/><path d="M 1160,160 L 1151.304347826087,154.25 L 1151.304347826087,165.75 Z" fill="rgb(26,26,26)" stroke="#1a1a1a" stroke-width="2" stroke-linecap="round" stroke-linejoin="round"/></g></g><g id="Ppa3EjWGi71"><g transform="translate(1160.0000000000005 130.00000000000003)"><rect x="0" y="0" width="120" height="60" fill="rgb(107,165,183)"   stroke-dasharray="0 0"/></g><g transform="translate(1191.4600000000005, 141.24500000000003) rotate(0, 28.54, 18.755)" width="57.08" height="37.51"><text text-decoration="none" x="0.5126562499999991" fill="#ffffff" font-size="10pt" font-family="noto_regular"  y="14">Prioritize&#160;</text><text text-decoration="none" x="0.004843749999999147" fill="#ffffff" font-size="10pt" font-family="noto_regular"  y="33.5">solutions</text><text text-decoration="none" x="57.07515625" fill="#4b4b4b" font-size="10pt" font-family="noto_regular"  y="33.5"></text></g></g><g id="CRrh45g8dUi"><g transform="translate(520.0000000000003 330.0000000000001)"><rect x="0" y="0" width="120" height="60" fill="rgb(107,165,183)"   stroke-dasharray="0 0"/></g><g transform="translate(539.6650000000003, 341.2450000000001) rotate(0, 40.335, 18.755)" width="80.67" height="37.51"><text text-decoration="none" x="16.2803125" fill="#ffffff" font-size="10pt" font-family="noto_regular"  y="14">Identify&#160;</text><text text-decoration="none" x="0.0029687500000008527" fill="#ffffff" font-size="10pt" font-family="noto_regular"  y="33.5">stakeholders</text><text text-decoration="none" x="80.66703125000001" fill="#4b4b4b" font-size="10pt" font-family="noto_regular"  y="33.5"></text></g></g><g id="Ud3pLIwiPwD"><g><path d="M 1220,190 L 1220.0000000000005,250.00000000000006 Q 1220.0000000000005,260.00000000000006 1210.0000000000005,260.00000000000006 L 900,260 L 590.0000000000003,260.00000000000006 Q 580.0000000000003,260.00000000000006 580.0000000000003,270.00000000000006 L 580,330" fill="none" stroke="#1a1a1a" stroke-width="2" stroke-linecap="round" stroke-linejoin="round" stroke-dasharray="0 0"/><path d="M 580,330 L 585.75,321.30434782608694 L 574.25,321.30434782608694 Z" fill="rgb(26,26,26)" stroke="#1a1a1a" stroke-width="2" stroke-linecap="round" stroke-linejoin="round"/></g></g><g id="jN0Yi2uEHss"><g transform="translate(740.0000000000003 330.0000000000003)"><rect x="0" y="0" width="120" height="60" fill="rgb(107,165,183)"   stroke-dasharray="0 0"/></g><g transform="translate(759.3750000000003, 341.2450000000003) rotate(0, 40.625, 18.755)" width="81.25" height="37.51"><text text-decoration="none" x="0.00390625" fill="#ffffff" font-size="10pt" font-family="noto_regular"  y="14">Analyze&#160;</text><text text-decoration="none" x="51.73046875" fill="#ffffff" font-size="10pt" font-family="noto_regular"  y="14">their&#160;</text><text text-decoration="none" x="21.69140625" fill="#ffffff" font-size="10pt" font-family="noto_regular"  y="33.5">needs</text><text text-decoration="none" x="59.55859375" fill="#4b4b4b" font-size="10pt" font-family="noto_regular"  y="33.5"></text></g></g><g id="q4WZ2HqEn8G"><g><path d="M 640,360 L 680.0000000000003,360.0000000000001 Q 680.0000000000007,360.0000000000001 690,360 Q 699.9999999999999,360.0000000000002 700.0000000000003,360.0000000000002 L 740,360" fill="none" stroke="#1a1a1a" stroke-width="2" stroke-linecap="round" stroke-linejoin="round" stroke-dasharray="0 0"/><path d="M 740,360 L 731.304347826087,354.25 L 731.304347826087,365.75 Z" fill="rgb(26,26,26)" stroke="#1a1a1a" stroke-width="2" stroke-linecap="round" stroke-linejoin="round"/></g></g><g id="gB11REQSzNZ"><g transform="translate(960.0000000000003 330.0000000000003)"><rect x="0" y="0" width="120" height="60" fill="rgb(107,165,183)"   stroke-dasharray="0 0"/></g><g transform="translate(990.6950000000005, 341.2450000000003) rotate(0, 29.305, 18.755)" width="58.61" height="37.51"><text text-decoration="none" x="1.7932812499999997" fill="#ffffff" font-size="10pt" font-family="noto_regular"  y="14">Get&#160;</text><text text-decoration="none" x="27.30109375" fill="#ffffff" font-size="10pt" font-family="noto_regular"  y="14">their&#160;</text><text text-decoration="none" x="0.0003124999999997158" fill="#ffffff" font-size="10pt" font-family="noto_regular"  y="33.5">approval&#160;</text><text text-decoration="none" x="58.6096875" fill="#4b4b4b" font-size="10pt" font-family="noto_regular"  y="33.5"></text></g></g><g id="gPVA3ax50UR"><g><path d="M 860,360 L 960,360" fill="none" stroke="#1a1a1a" stroke-width="2" stroke-linecap="round" stroke-linejoin="round" stroke-dasharray="0 0"/><path d="M 960,360 L 951.304347826087,354.25 L 951.304347826087,365.75 Z" fill="rgb(26,26,26)" stroke="#1a1a1a" stroke-width="2" stroke-linecap="round" stroke-linejoin="round"/></g></g><g id="NJflTYpYbsg"><g><path d="M 1020,390 L 1020.0000000000003,450.00000000000034 Q 1020.0000000000005,460.00000000000034 1010.0000000000005,460.00000000000034 L 805,460 L 600.0000000000003,460.00000000000034 Q 590.0000000000003,460.00000000000034 590.0000000000003,470.00000000000034 L 590,530" fill="none" stroke="#1a1a1a" stroke-width="2" stroke-linecap="round" stroke-linejoin="round" stroke-dasharray="0 0"/><path d="M 590,530 L 595.75,521.304347826087 L 584.25,521.304347826087 Z" fill="rgb(26,26,26)" stroke="#1a1a1a" stroke-width="2" stroke-linecap="round" stroke-linejoin="round"/></g></g><g id="re0rtd7CKS1"><g transform="translate(530.0000000000003 530.0000000000003)"><rect x="0" y="0" width="120" height="60" fill="rgb(142,175,93)"   stroke-dasharray="0 0"/></g><g transform="translate(542.9250000000003, 541.2450000000003) rotate(0, 47.075, 18.755)" width="94.15" height="37.51"><text text-decoration="none" x="0.0007812500000028422" fill="#ffffff" font-size="10pt" font-family="noto_regular"  y="14">Create&#160;</text><text text-decoration="none" x="44.72734375" fill="#ffffff" font-size="10pt" font-family="noto_regular"  y="14">product&#160;</text><text text-decoration="none" x="16.086718750000003" fill="#ffffff" font-size="10pt" font-family="noto_regular"  y="33.5">prototype</text><text text-decoration="none" x="78.06328125" fill="#4b4b4b" font-size="10pt" font-family="noto_regular"  y="33.5"></text></g></g><g id="QYMUd2p6upk"><g><path d="M 650,560 L 750,560" fill="none" stroke="#1a1a1a" stroke-width="2" stroke-linecap="round" stroke-linejoin="round" stroke-dasharray="0 0"/><path d="M 750,560 L 741.304347826087,554.25 L 741.304347826087,565.75 Z" fill="rgb(26,26,26)" stroke="#1a1a1a" stroke-width="2" stroke-linecap="round" stroke-linejoin="round"/></g></g><g id="sNdPU8oSF1p"><g transform="translate(750.0000000000003 530.0000000000003)"><rect x="0" y="0" width="120" height="60" fill="rgb(142,175,93)"   stroke-dasharray="0 0"/></g><g transform="translate(778.7800000000003, 550.2500000000003) rotate(0, 31.22, 9.75)" width="62.44" height="19.5"><text text-decoration="none" x="0.0012499999999988631" fill="#ffffff" font-size="10pt" font-family="noto_regular"  y="15.5">Test&#160;</text><text text-decoration="none" x="29.6028125" fill="#ffffff" font-size="10pt" font-family="noto_regular"  y="15.5">it&#160;</text><text text-decoration="none" x="41.3215625" fill="#ffffff" font-size="10pt" font-family="noto_regular"  y="15.5">out</text><text text-decoration="none" x="62.43875" fill="#4b4b4b" font-size="10pt" font-family="noto_regular"  y="15.5"></text></g></g><g id="Qo5jRIpWMhx"><g><path d="M 870,560 L 970,560" fill="none" stroke="#1a1a1a" stroke-width="2" stroke-linecap="round" stroke-linejoin="round" stroke-dasharray="0 0"/><path d="M 970,560 L 961.304347826087,554.25 L 961.304347826087,565.75 Z" fill="rgb(26,26,26)" stroke="#1a1a1a" stroke-width="2" stroke-linecap="round" stroke-linejoin="round"/></g></g><g id="lxPxvuCCldY"><g transform="translate(970.0000000000003 520.0000000000003)"><path d="M 60,0 L 0,40 L 60,80 L 120,40 L 60,0 Z" fill="rgb(198,156,94)"   stroke-dasharray="0 0"/></g><g transform="translate(994.0900000000005, 550.2500000000003) rotate(0, 35.91, 9.75)" width="71.82" height="19.5"><text text-decoration="none" x="0.0037499999999965894" fill="#ffffff" font-size="10pt" font-family="noto_regular"  y="15.5">Successful?</text><text text-decoration="none" x="71.81625" fill="#4b4b4b" font-size="10pt" font-family="noto_regular"  y="15.5"></text></g></g><g id="0L9EOV8sC6T"><g transform="translate(1190.0000000000005 530.0000000000003)"><rect x="0" y="0" width="120" height="60" fill="rgb(142,175,93)"   stroke-dasharray="0 0"/></g><g transform="translate(1203.7550000000006, 550.2500000000003) rotate(0, 46.245, 9.75)" width="92.49" height="19.5"><text text-decoration="none" x="0.002812499999997442" fill="#ffffff" font-size="10pt" font-family="noto_regular"  y="15.5">Refine&#160;</text><text text-decoration="none" x="43.0653125" fill="#ffffff" font-size="10pt" font-family="noto_regular"  y="15.5">product</text><text text-decoration="none" x="92.4871875" fill="#4b4b4b" font-size="10pt" font-family="noto_regular"  y="15.5"></text></g></g><g id="n9m2DTDuKYI"><mask id="1115e" x="1076" y="546" width="128" height="28" maskUnits="userSpaceOnUse"><rect x="1076" y="546" width="128" height="28" fill="white" /><rect x="1127.9" y="547.25" width="24.2" height="25.5" fill="black" /></mask><g mask="url(#1115e)"><path d="M 1090,560 L 1190,560" fill="none" stroke="#1a1a1a" stroke-width="2" stroke-linecap="round" stroke-linejoin="round" stroke-dasharray="0 0"/><path d="M 1190,560 L 1181.304347826087,554.25 L 1181.304347826087,565.75 Z" fill="rgb(26,26,26)" stroke="#1a1a1a" stroke-width="2" stroke-linecap="round" stroke-linejoin="round"/></g><g transform="translate(1130.9, 550.25)" width="18.2" height="19.5"><text text-decoration="none" x="0.0023437499999996447" fill="#4b4b4b" font-size="10pt" font-family="noto_regular"  y="15.5">No</text><text text-decoration="none" x="18.19765625" fill="#4b4b4b" font-size="10pt" font-family="noto_regular"  y="15.5"></text></g></g><g id="YmpPkNJj1DZ"><g><path d="M 1310,560 L 1410,560" fill="none" stroke="#1a1a1a" stroke-width="2" stroke-linecap="round" stroke-linejoin="round" stroke-dasharray="0 0"/><path d="M 1410,560 L 1401.304347826087,554.25 L 1401.304347826087,565.75 Z" fill="rgb(26,26,26)" stroke="#1a1a1a" stroke-width="2" stroke-linecap="round" stroke-linejoin="round"/></g></g><g id="exjqqlidQOT"><g transform="translate(1410.0000000000005 530.0000000000003)"><rect x="0" y="0" width="120" height="60" fill="rgb(142,175,93)"   stroke-dasharray="0 0"/></g><g transform="translate(1420.7600000000004, 550.2500000000003) rotate(0, 49.24, 9.75)" width="98.48" height="19.5"><text text-decoration="none" x="0.0017187500000019895" fill="#ffffff" font-size="10pt" font-family="noto_regular"  y="15.5">Launch&#160;</text><text text-decoration="none" x="49.05640625" fill="#ffffff" font-size="10pt" font-family="noto_regular"  y="15.5">product</text><text text-decoration="none" x="98.47828125000001" fill="#4b4b4b" font-size="10pt" font-family="noto_regular"  y="15.5"></text></g></g><g id="e2MfdcsmVU5"><g transform="translate(530.0000000000003 729.9999999999999)"><rect x="0" y="0" width="120" height="60" fill="rgb(142,175,93)"   stroke-dasharray="0 0"/></g><g transform="translate(562.7500000000003, 741.2449999999999) rotate(0, 27.25, 18.755)" width="54.5" height="37.51"><text text-decoration="none" x="0.00390625" fill="#ffffff" font-size="10pt" font-family="noto_regular"  y="14">Promote&#160;</text><text text-decoration="none" x="2.5390625" fill="#ffffff" font-size="10pt" font-family="noto_regular"  y="33.5">product</text><text text-decoration="none" x="51.9609375" fill="#4b4b4b" font-size="10pt" font-family="noto_regular"  y="33.5"></text></g></g><g id="zPacrGx5dTj"><g><path d="M 1470,590 L 1470.0000000000005,650.0000000000001 Q 1470.0000000000005,660.0000000000001 1460.0000000000005,660.0000000000001 L 1030,660 L 600.0000000000003,660.0000000000001 Q 590.0000000000003,660.0000000000001 590.0000000000003,670.0000000000001 L 590,730" fill="none" stroke="#1a1a1a" stroke-width="2" stroke-linecap="round" stroke-linejoin="round" stroke-dasharray="0 0"/><path d="M 590,730 L 595.75,721.304347826087 L 584.25,721.304347826087 Z" fill="rgb(26,26,26)" stroke="#1a1a1a" stroke-width="2" stroke-linecap="round" stroke-linejoin="round"/></g></g><g id="HyaFOwVTNwK"><g><path d="M 650,760 L 750,760" fill="none" stroke="#1a1a1a" stroke-width="2" stroke-linecap="round" stroke-linejoin="round" stroke-dasharray="0 0"/><path d="M 750,760 L 741.304347826087,754.25 L 741.304347826087,765.75 Z" fill="rgb(26,26,26)" stroke="#1a1a1a" stroke-width="2" stroke-linecap="round" stroke-linejoin="round"/></g></g><g id="jVwYYkEgvvO"><g transform="translate(750.0000000000003 729.9999999999999)"><rect x="0" y="0" width="139.99999979979611" height="60" fill="rgb(142,175,93)"   stroke-dasharray="0 0"/></g><g transform="translate(763.4599998998984, 741.2449999999999) rotate(0, 56.54, 18.755)" width="113.08" height="37.51"><text text-decoration="none" x="0.0009374999999991473" fill="#ffffff" font-size="10pt" font-family="noto_regular"  y="14">Monitor&#160;</text><text text-decoration="none" x="53.6884375" fill="#ffffff" font-size="10pt" font-family="noto_regular"  y="14">customer&#160;</text><text text-decoration="none" x="28.024375" fill="#ffffff" font-size="10pt" font-family="noto_regular"  y="33.5">feedback</text><text text-decoration="none" x="85.05562499999999" fill="#4b4b4b" font-size="10pt" font-family="noto_regular"  y="33.5"></text></g></g><g id="TngxC5NzlMV"><g><path d="M 890,760 L 929.9999998998984,759.9999999999999 Q 930,759.9999999999999 940,760 Q 949.9999997997968,760.0000000000001 949.9999998998984,760.0000000000001 L 990,760" fill="none" stroke="#1a1a1a" stroke-width="2" stroke-linecap="round" stroke-linejoin="round" stroke-dasharray="0 0"/><path d="M 990,760 L 981.304347826087,754.25 L 981.304347826087,765.75 Z" fill="rgb(26,26,26)" stroke="#1a1a1a" stroke-width="2" stroke-linecap="round" stroke-linejoin="round"/></g></g><g id="XQrbIeI98KX"><g transform="translate(990.0000000000003 740.0000000000001)"><path d="M 20,40 L 20,40 L 20,40 A 20 20 0 0 1 0 20.000000000000004 L 0,20 L 0,20.000000000000004 A 20 20 0 0 1 20 0 L 80,0 L 80,0 L 80,0 A 20 20 0 0 1 100 20 L 100,20 L 100,20 A 20 20 0 0 1 80 40 L 20,40 Z" fill="rgb(127,127,206)"   stroke-dasharray="0 0"/></g><g transform="translate(1028.0700000000004, 750.2500000000001) rotate(0, 11.93, 9.75)" width="23.86" height="19.5"><text text-decoration="none" x="0.0003124999999997158" fill="#ffffff" font-size="10pt" font-family="noto_regular"  y="15.5">End</text><text text-decoration="none" x="23.8596875" fill="#4b4b4b" font-size="10pt" font-family="noto_regular"  y="15.5"></text></g></g><g id="rbSLNbxpPN3"><mask id="82195" x="1016" y="486" width="468" height="58" maskUnits="userSpaceOnUse"><rect x="1016" y="486" width="468" height="58" fill="white" /><rect x="1215.8211053578248" y="487.25" width="27.46" height="25.5" fill="black" /></mask><g mask="url(#82195)"><path d="M 1030,515 L 1030,510 Q 1030,500 1040,500 L 1250,500 L 1460,500 Q 1470,500 1470,510 L 1470,525" fill="none" stroke="#1a1a1a" stroke-width="2" stroke-linecap="round" stroke-linejoin="round" stroke-dasharray="0 0"/><path d="M 1470,525 L 1475.75,516.304347826087 L 1464.25,516.304347826087 Z" fill="rgb(26,26,26)" stroke="#1a1a1a" stroke-width="2" stroke-linecap="round" stroke-linejoin="round"/></g><g transform="translate(1218.8211053578248, 490.25)" width="21.46" height="19.5"><text text-decoration="none" x="0.0034375000000004263" fill="#1a1a1a" font-size="10pt" font-family="noto_regular"  y="15.5">Yes</text><text text-decoration="none" x="21.4565625" fill="#4b4b4b" font-size="10pt" font-family="noto_regular"  y="15.5"></text></g></g></svg>